<svg width="125" height="32" viewBox="0 0 125 32" fill="none" xmlns="http://www.w3.org/2000/svg">
<path d="M0 0V31.375H32.6176V0H0ZM28.0837 31.375L16.3908 14.5055L8.82324 18.7939V26.7798H4.74322V0H8.82324V14.1722L25.7431 4.59904L29.4579 7.15238L20.0572 12.4144L32.6176 30.9775V31.375H28.0837Z" fill="#1A197A"/>
<path d="M39.4642 26.81V4.28076L35.4141 4.62929V26.81H39.4642Z" fill="#1A197A"/>
<path d="M46.0822 11.3311H41.9688V26.8102H46.0822V11.3311Z" fill="#1A197A"/>
<path d="M52.3341 26.81V16.1193C52.688 15.8655 53.0681 15.589 53.4631 15.2897C53.8617 14.9904 54.2791 14.748 54.7188 14.5548C55.1584 14.3615 55.6204 14.2668 56.1011 14.2668C56.5818 14.2668 56.9283 14.3843 57.2003 14.6192C57.4723 14.854 57.6698 15.195 57.7965 15.642C57.9231 16.0663 57.9865 16.6194 57.9865 17.3013V26.8138H62.0665V16.4717C62.0665 15.2783 61.91 14.2706 61.597 13.441C61.284 12.5886 60.7698 11.9408 60.0581 11.4938C59.3464 11.0468 58.3851 10.8232 57.1704 10.8232C56.7084 10.8232 56.1644 10.9066 55.5385 11.0771C54.9125 11.2248 54.2605 11.471 53.5935 11.812C52.9228 12.1302 52.2633 12.5128 51.615 12.9599L50.9256 11.3309H48.2578V26.81H52.3378H52.3341Z" fill="#1A197A"/>
<path d="M62.0392 16.1193C62.3969 15.8655 62.7733 15.589 63.1682 15.2897C63.5669 14.9904 63.9842 14.748 64.4238 14.5548C64.8635 14.3615 65.3256 14.2668 65.8063 14.2668C66.2869 14.2668 66.6222 14.3843 66.8719 14.6192C67.1439 14.854 67.3414 15.195 67.4681 15.642C67.6134 16.0663 67.6878 16.6194 67.6878 17.3013V26.8138H71.7679V16.4717C71.7679 15.2783 71.6114 14.2706 71.2984 13.441C70.9854 12.5886 70.4712 11.9408 69.7595 11.4938C69.0479 11.0468 68.0866 10.8232 66.8719 10.8232C66.3912 10.8232 65.8361 10.9066 65.2101 11.0771C64.6027 11.2248 63.9656 11.471 63.2949 11.812C62.6243 12.1302 61.9647 12.5128 61.3164 12.9599L62.0392 16.1193Z" fill="#1A197A"/>
<path d="M95.8242 11.3951H93.0632V6.95898L89.013 7.69392V11.3951H86.9712L86.9414 14.5243H89.013V21.8661C89.013 23.0594 89.2627 24.0671 89.7657 24.8968C90.2687 25.7264 90.958 26.3666 91.8374 26.8099C92.7391 27.2342 93.8158 27.4501 95.0715 27.4501C95.4069 27.4501 95.7721 27.3971 96.1708 27.291C96.5695 27.2077 96.9457 27.0902 97.2997 26.9387C97.6574 26.8099 97.9368 26.6621 98.1492 26.4917L96.9569 23.4913C96.6626 23.6201 96.3831 23.7148 96.1111 23.7792C95.8391 23.8436 95.5671 23.8739 95.2951 23.8739C94.5611 23.8739 94.0097 23.6201 93.6333 23.1087C93.257 22.5972 93.067 21.9381 93.067 21.1312V14.5243H97.0836L95.8279 11.3951H95.8242Z" fill="#1A197A"/>
<path d="M111.997 19.025C111.997 17.5551 111.748 16.2065 111.245 14.9715C110.764 13.7365 110.011 12.7591 108.983 12.0355C107.958 11.2892 106.65 10.918 105.059 10.918C103.468 10.918 102.131 11.2589 100.979 11.9408C99.828 12.6 98.9375 13.5471 98.3116 14.7821C97.7042 15.9943 97.4023 17.4301 97.4023 19.0894C97.4023 20.7487 97.7265 22.1655 98.3749 23.3968C99.0232 24.609 99.9957 25.5447 101.292 26.2039C102.611 26.8631 104.255 27.1927 106.222 27.1927C107.101 27.1927 107.876 27.1093 108.543 26.9389C109.233 26.7911 109.851 26.579 110.395 26.3024C110.961 26.0031 111.472 25.666 111.934 25.2796L110.742 22.2792C110.071 22.6845 109.393 23.0141 108.7 23.268C108.01 23.5218 107.213 23.6506 106.315 23.6506C105.309 23.6506 104.493 23.5104 103.867 23.2339C103.237 22.9573 102.757 22.5747 102.421 22.086C102.086 21.5746 101.855 20.9798 101.732 20.2979H111.997V19.0212V19.025ZM101.762 17.5248C101.889 16.8429 102.097 16.2785 102.392 15.8314C102.686 15.3844 103.051 15.0435 103.491 14.8086C103.93 14.5737 104.422 14.4563 104.966 14.4563C105.51 14.4563 105.991 14.5737 106.412 14.8086C106.852 15.0207 107.217 15.3503 107.511 15.7973C107.805 16.2444 108.014 16.8202 108.141 17.521H101.769L101.762 17.5248Z" fill="#1A197A"/>
<path d="M113.105 25.5979C113.586 25.9578 114.152 26.2684 114.801 26.5223C115.472 26.7571 116.131 26.9276 116.779 27.0337C117.428 27.1398 117.96 27.1928 118.381 27.1928C120.453 27.1928 122.022 26.7685 123.091 25.9161C124.179 25.0637 124.723 23.8856 124.723 22.374C124.723 21.4572 124.462 20.6731 123.937 20.0139C123.434 19.332 122.786 18.7486 121.992 18.2599C121.217 17.7712 120.401 17.3886 119.544 17.112C119.022 16.9188 118.486 16.7067 117.942 16.4756C117.42 16.2218 117.167 15.9338 117.189 15.6156C117.189 15.2557 117.357 14.9451 117.692 14.6913C118.046 14.4147 118.486 14.2746 119.011 14.2746C119.7 14.2746 120.36 14.3693 120.99 14.5625C121.619 14.7557 122.298 15.0095 123.032 15.3277L124.257 12.5509C123.754 12.191 123.181 11.8917 122.532 11.6568C121.884 11.4219 121.247 11.2401 120.617 11.1151C120.01 10.9863 119.488 10.9219 119.048 10.9219C117.208 10.9219 115.751 11.3462 114.685 12.1985C113.638 13.0282 113.117 14.1761 113.117 15.6459C113.117 16.4983 113.366 17.2295 113.869 17.847C114.391 18.4645 115.043 18.9835 115.814 19.4115C116.608 19.8169 117.394 20.1578 118.169 20.4344C118.754 20.6049 119.235 20.7943 119.615 21.0102C120.013 21.2224 120.315 21.4572 120.524 21.7111C120.733 21.9459 120.837 22.2111 120.837 22.5104C120.837 22.8097 120.692 23.0635 120.397 23.2756C120.125 23.4688 119.801 23.6166 119.425 23.7227C119.048 23.806 118.683 23.8515 118.326 23.8515C117.949 23.8515 117.539 23.8098 117.1 23.7227C116.682 23.6393 116.243 23.5219 115.781 23.3704C115.319 23.1999 114.838 23.018 114.335 22.8286L113.109 25.6055L113.105 25.5979Z" fill="#1A197A"/>
<path d="M85.406 13.6948C84.821 12.8235 84.0236 12.1416 83.0213 11.6529C82.0153 11.1642 80.9086 10.918 79.6939 10.918C79.2766 10.918 78.6991 10.9824 77.9688 11.1112C77.2572 11.24 76.5567 11.4105 75.8674 11.6226C75.1781 11.8158 74.634 12.0469 74.2354 12.3234L75.3345 15.7708C75.9009 15.517 76.6014 15.2821 77.4398 15.07C78.2781 14.8578 79.0494 14.7518 79.7611 14.7518C80.5137 14.7518 81.0987 14.9753 81.5198 15.4223C81.9594 15.8466 82.1904 16.4452 82.209 17.2104V17.2407H79.2282C77.5105 17.2634 76.1207 17.6991 75.0513 18.5477C73.9857 19.3773 73.4492 20.5896 73.4492 22.1845C73.4492 23.6733 73.9 24.8856 74.798 25.8213C75.6997 26.7381 77.0784 27.1927 78.9414 27.1927C79.694 27.1927 80.4057 26.9995 81.0764 26.6168C81.7657 26.2342 82.3953 25.7455 82.9579 25.147L83.6473 26.8063H86.3151V16.6232C86.3151 15.517 86.0133 14.5396 85.406 13.6872V13.6948ZM82.2351 22.3777C81.7135 22.8891 81.1583 23.2717 80.5733 23.5256C80.007 23.7794 79.4443 23.9082 78.878 23.9082C78.5016 23.9082 78.1663 23.8324 77.872 23.6847C77.6 23.5142 77.3801 23.302 77.2124 23.0482C77.0448 22.7717 76.9628 22.4838 76.9628 22.1883C76.9628 21.6352 77.1529 21.1351 77.5292 20.6881C77.9055 20.2411 78.4495 20.0176 79.1611 20.0176H82.2388V22.3777H82.2351Z" fill="#1A197A"/>
<path d="M46.0504 8.71312V4.28076L42.0039 4.62929V8.71312H46.0504Z" fill="#1A197A"/>
</svg>
